<?xml version="1.0" encoding="utf-8"?>
<!-- Generator: Adobe Illustrator 27.0.0, SVG Export Plug-In . SVG Version: 6.00 Build 0)  -->
<svg version="1.1" id="Layer_1" xmlns="http://www.w3.org/2000/svg" xmlns:xlink="http://www.w3.org/1999/xlink" x="0px" y="0px"
	 viewBox="0 0 223.7 68.9" style="enable-background:new 0 0 223.7 68.9;" xml:space="preserve">
<g>
	<path d="M148.1,57.6v-3.7h2.7c3,0,4.6-1.5,4.6-4.7v-29c0-3.6-1.4-4.8-4.9-4.8h-1.7v-3.7h15.8l0.7,7.6h0.7c2.7-4.8,8.4-8.4,15-8.4
		c8.6,0,14.5,5.9,14.5,13.7v24.5c0,3.2,1.3,4.7,4.8,4.7h1.5v3.7h-23.5v-3.7h1.9c3.3,0,5-1.5,5-4.7V27.8c0-6.8-4.1-9.5-8.9-9.5
		c-5.2,0-10.6,4.1-10.6,11.2v19.7c0,3.2,1.7,4.7,5.1,4.7h1.9v3.7H148.1z"/>
	<path d="M100,18.8c-1.1-2.8-2.3-3.5-4.2-3.5h-2.1v-3.7h23.3v3.7h-3.9c-2.8,0-3.4,1.8-2.3,4.6l9.3,24.6h0.9l10.7-24.6
		c1.2-2.8,0.5-4.6-2.6-4.6h-3.7v-3.7H145v3.7h-1.8c-2.9,0-4.3,1.5-5.6,4.5L121.1,58h-6l-10.4-26.7L93.1,58h-5.9L70.3,18.8
		c-1.2-2.8-2.4-3.5-5.3-3.5h-1.7v-3.7h24.3v3.7h-3.6c-2.8,0-3.4,2-2.2,4.8L92,44.5h1L102,24L100,18.8z"/>
	<path d="M13.9,57.6v-3.7h2.4c3,0,4.6-1.1,4.6-4.7V19.8c0-3.2-1.4-4.4-4.9-4.4h-1.7v-3.7H30l0.7,7.6h0.7c2.7-4.8,8.4-8.4,15-8.4
		c8.6,0,14.5,5.9,14.5,13.7v24.5c0,3.2,1.3,4.7,4.8,4.7h1.9v3.7H43.7v-3.7h1.9c3.3,0,5-1.5,5-4.7V27.8c0-6.8-4.1-9.5-8.9-9.5
		c-5.2,0-10.6,4.1-10.6,11.2v19.7c0,3.2,1.7,4.7,5.1,4.7h1.9v3.7H13.9z"/>
	<path d="M206.2,16.9h0.9c0.8,0,1.2-0.4,1.2-1c0-0.6-0.4-1-1.2-1h-0.9V16.9z M201.6,17.4c0,3.1,2.4,5.5,5.5,5.5
		c3.1,0,5.5-2.4,5.5-5.5s-2.4-5.5-5.5-5.5C204,11.9,201.6,14.3,201.6,17.4z M200.4,17.4c0-3.8,2.9-6.6,6.8-6.6
		c3.8,0,6.7,2.8,6.7,6.6s-2.9,6.6-6.7,6.6S200.4,21.2,200.4,17.4z M209.5,20.5c-0.6,0-0.8-0.2-1.1-0.8l-0.6-1.4
		c-0.2-0.5-0.4-0.6-0.8-0.6h-0.8v1.6c0,0.5,0.2,0.6,0.7,0.6h0.3v0.6h-3.2v-0.6h0.3c0.4,0,0.7-0.1,0.7-0.6v-3.9
		c0-0.5-0.2-0.6-0.7-0.6h-0.3v-0.6h3.5c1.5,0,2.4,0.6,2.4,1.5c0,0.8-0.6,1.4-1.8,1.5v0.1c0.7,0.1,0.9,0.3,1.2,1l0.6,1.1
		c0.2,0.5,0.3,0.5,0.8,0.5h0v0.6H209.5z"/>
</g>
</svg>
