<?xml version="1.0" encoding="UTF-8"?>
<svg id="_Слой_1" data-name="Слой 1" xmlns="http://www.w3.org/2000/svg" viewBox="0 0 575.84 198.67">
  <defs>
    <style>
      .cls-1 {
        fill: #000;
      }
    </style>
  </defs>
  <path class="cls-1" d="M86.23,48.45c-3.36-5.8-8.24-9.45-15.73-9.45s-14.96,5.5-16.18,12.97c-3.05,19.38,43.95,11.3,37.85,49.9-3.66,23.05-20.6,39.38-44.1,39.38-15.88,0-26.1-9.16-31.9-22.44l16.79-14.19c1.68,8.85,8.39,16.79,18,16.79s16.18-7.78,17.56-16.63c1.83-11.9-8.55-15.27-17.1-18.78-13.73-6.1-23.5-13.58-20.6-31.43,3.05-19.08,19.69-34.5,39.07-34.5,10.22,0,23.5,5.04,29.3,12.83l-12.96,15.55m38.42,14.81l-6.41,40.59c-1.37,8.55-1.68,18.77,9.16,18.77s13.88-10.22,15.26-18.77l6.4-40.6h21.37l-7.02,44.1c-3.5,21.83-16.63,33.28-38.91,33.28s-31.75-11.45-28.24-33.27l7.02-44.1h21.37m102.25,37.38c1.52-10.07-3.37-20.9-14.35-20.9s-19.54,10.83-21.06,20.9c-1.53,10.08,3.35,21.06,14.34,21.06s19.53-10.98,21.06-21.06h.01Zm-28.4-30.52c5.8-5.8,14.2-9.3,22.13-9.3,21.22,0,31.14,19.83,27.93,39.52-3.2,20.45-18.92,40.29-41.05,40.29-7.63,0-15.1-3.36-18.47-9.46h-.3l-7.33,47h-21.36l18.15-114.91h21.36l-1.06,6.86m81.16,.92h.3c5.34-6.56,12.21-10.23,20.15-10.23,3.05,0,6.1,.77,8.54,1.84l-5.64,19.83c-2.4-1.85-5.37-2.82-8.4-2.74-14.8,0-18.46,13.12-20.3,24.72l-5.34,33.73h-21.36l11.9-74.93h21.37l-1.22,7.78m73.55,19.84c.15-7.63-3.51-15.11-11.75-15.11s-14.5,7.32-16.79,15.1h28.54Zm-31.28,13.28c-1.38,9.47,.45,20.15,11.6,20.15,7.01,0,12.2-4.27,16.02-10.23l19.23,3.2c-7.63,14.96-22.13,23.36-37.85,23.36-23.2,0-34.64-16.48-31.13-39.22,3.66-22.74,18.46-40.6,42.73-40.6s32.66,18.16,29.15,40.75l-.46,2.6h-49.3m80.12-34.19h.3c4.96-5.72,12.13-9.05,19.7-9.16,9.3,0,16.02,3.82,19.68,11.75,5.8-7.32,14.95-11.75,23.65-11.75,19.08,0,21.52,14.35,18.93,30.68l-7.33,46.7h-21.36l6.25-39.38c1.07-7.32,3.82-20.9-6.71-20.9-11.6,0-14.04,15.71-15.26,23.5l-5.8,36.78h-21.37l5.95-38c1.23-7.33,4.58-22.28-6.56-22.28-11.9,0-13.88,15.56-15.1,23.5l-5.8,36.78h-21.37l11.9-74.93h21.37l-1.07,6.71m139.32,20.91c.16-7.63-3.5-15.11-11.75-15.11s-14.5,7.32-16.78,15.1h28.53Zm-31.28,13.28c-1.37,9.47,.46,20.15,11.6,20.15,7.02,0,12.2-4.27,16.02-10.23l19.23,3.2c-7.63,14.96-22.13,23.36-37.85,23.36-23.2,0-34.64-16.48-31.13-39.22,3.66-22.74,18.47-40.6,42.73-40.6s32.66,18.16,29.15,40.75l-.46,2.6h-49.29"/>
</svg>